<?xml version="1.0" standalone="no"?>
<!DOCTYPE svg PUBLIC "-//W3C//DTD SVG 20010904//EN"
 "http://www.w3.org/TR/2001/REC-SVG-20010904/DTD/svg10.dtd">
<svg version="1.0" xmlns="http://www.w3.org/2000/svg"
 width="700.000000pt" height="700.000000pt" viewBox="0 0 700.000000 700.000000"
 preserveAspectRatio="xMidYMid meet">
<metadata>
Created by potrace 1.11, written by Peter Selinger 2001-2013
</metadata>
<g transform="translate(0.000000,700.000000) scale(0.100000,-0.100000)"
fill="#000000" stroke="none">
<path d="M1314 6908 c2 -18 7 -60 11 -93 3 -33 8 -73 10 -90 2 -16 7 -57 10
-90 3 -33 8 -71 10 -85 2 -14 6 -43 9 -65 3 -22 8 -59 11 -82 l5 -42 -53 7
c-66 9 -209 9 -263 0 -67 -11 -180 -54 -242 -92 -162 -98 -265 -242 -308 -427
-13 -57 -13 -228 1 -299 30 -155 103 -324 211 -486 224 -338 650 -718 1166
-1042 57 -35 77 -56 137 -144 256 -376 577 -652 938 -806 75 -32 156 -111 195
-190 l33 -67 0 -350 c0 -378 -3 -416 -39 -530 -48 -151 -149 -282 -284 -369
-78 -51 -198 -103 -249 -108 -5 0 -19 -5 -32 -10 -13 -5 -49 -11 -80 -15 -31
-3 -63 -7 -71 -9 -8 -1 -57 -3 -107 -3 l-93 -1 0 -180 0 -180 1260 0 1260 0 0
180 0 180 -87 1 c-93 0 -145 5 -203 16 -19 3 -44 8 -55 10 -131 23 -339 134
-418 222 -54 61 -115 159 -140 227 -49 131 -52 164 -52 554 l0 365 27 57 c47
101 102 148 266 230 276 136 467 283 693 533 50 56 163 208 205 276 32 51 52
67 187 155 84 54 158 104 165 111 8 7 23 18 35 25 12 6 69 47 127 91 568 434
888 841 970 1234 31 150 16 337 -37 452 -96 208 -289 352 -523 391 -58 9 -211
6 -268 -5 -33 -6 -34 -6 -28 22 3 15 10 73 17 128 6 55 12 110 14 123 2 12 6
50 9 85 7 61 10 92 21 175 l6 42 -2191 0 -2191 0 5 -32z m97 -903 c16 -6 19
-21 35 -135 1 -8 7 -44 12 -80 11 -68 19 -121 28 -180 3 -19 9 -57 14 -85 5
-27 11 -66 14 -85 3 -19 12 -75 21 -125 9 -49 18 -103 21 -120 58 -333 131
-636 183 -759 12 -27 20 -51 17 -53 -2 -2 -26 15 -52 38 -27 22 -76 64 -109
92 -92 79 -343 329 -411 410 -279 332 -403 614 -359 817 9 40 46 115 72 146
50 57 167 115 258 127 43 6 237 0 256 -8z m4479 0 c50 -11 151 -60 182 -89
144 -136 148 -338 14 -603 -92 -183 -239 -369 -475 -603 -142 -142 -350 -330
-364 -330 -4 0 5 30 19 68 43 112 92 294 124 455 36 186 31 156 86 477 50 294
50 294 60 365 3 28 8 59 10 70 2 11 7 40 10 65 17 124 16 123 54 128 19 2 37
5 39 8 6 6 202 -3 241 -11z"/>
<path d="M542 832 c-30 -23 -40 -83 -18 -116 29 -46 123 -44 141 2 10 26 -11
36 -28 12 -19 -27 -61 -35 -81 -14 -25 25 -21 81 9 100 23 15 65 12 65 -6 0
-12 29 -20 35 -10 3 5 -3 18 -15 30 -25 25 -77 26 -108 2z"/>
<path d="M1093 843 c-7 -3 -13 -11 -13 -18 0 -7 -6 -16 -12 -19 -10 -5 -10 -7
0 -12 6 -3 12 -23 12 -44 0 -21 3 -45 6 -54 7 -17 54 -22 54 -6 0 6 -7 10 -15
10 -11 0 -15 12 -15 45 0 33 4 45 15 45 8 0 15 5 15 10 0 6 -6 10 -14 10 -8 0
-16 8 -18 18 -2 11 -9 17 -15 15z"/>
<path d="M1400 818 c0 -25 -3 -29 -12 -20 -18 18 -53 15 -71 -6 -23 -25 -21
-68 3 -92 22 -22 66 -27 73 -7 4 10 6 10 6 0 1 -7 8 -13 16 -13 12 0 15 16 15
85 0 69 -3 85 -15 85 -10 0 -15 -10 -15 -32z m-10 -47 c15 -30 12 -49 -11 -61
-25 -14 -49 2 -49 34 0 43 41 61 60 27z"/>
<path d="M1530 767 l0 -84 49 -1 c55 -1 68 8 77 55 8 43 -26 78 -67 69 -26 -5
-29 -3 -29 19 0 16 -6 25 -15 25 -12 0 -15 -16 -15 -83z m88 11 c30 -30 -2
-93 -36 -71 -21 13 -27 50 -12 69 15 17 32 18 48 2z"/>
<path d="M1907 832 c-32 -35 -17 -66 36 -76 15 -2 31 -7 37 -11 17 -10 11 -33
-10 -40 -21 -7 -60 10 -60 25 0 6 -7 10 -15 10 -8 0 -15 -6 -15 -14 0 -36 76
-57 115 -32 30 20 32 46 5 71 -11 10 -20 15 -20 12 0 -3 -14 -1 -31 5 -19 7
-29 16 -27 27 5 22 36 26 58 6 29 -26 49 -14 22 13 -27 27 -73 29 -95 4z"/>
<path d="M2073 843 c-7 -3 -13 -11 -13 -18 0 -7 -6 -16 -12 -19 -10 -5 -10 -7
0 -12 6 -3 12 -23 12 -44 0 -21 3 -45 6 -54 7 -17 54 -22 54 -6 0 6 -7 10 -15
10 -11 0 -15 12 -15 45 0 33 4 45 15 45 8 0 15 5 15 10 0 6 -6 10 -14 10 -8 0
-16 8 -18 18 -2 11 -9 17 -15 15z"/>
<path d="M2440 840 c0 -5 7 -10 15 -10 8 0 15 5 15 10 0 6 -7 10 -15 10 -8 0
-15 -4 -15 -10z"/>
<path d="M2630 765 c0 -65 3 -85 14 -85 10 0 14 20 14 85 1 68 -2 85 -13 85
-12 0 -15 -17 -15 -85z"/>
<path d="M3040 765 l0 -85 60 0 c44 0 60 4 60 13 0 10 -13 13 -45 12 l-45 -1
0 73 c0 58 -3 73 -15 73 -12 0 -15 -16 -15 -85z"/>
<path d="M3460 840 c0 -5 7 -10 15 -10 8 0 15 5 15 10 0 6 -7 10 -15 10 -8 0
-15 -4 -15 -10z"/>
<path d="M690 744 c0 -50 3 -64 15 -64 11 0 15 12 15 44 0 37 5 48 27 64 l26
19 -41 0 -42 0 0 -63z"/>
<path d="M790 790 c-11 -11 -20 -31 -20 -45 0 -53 69 -85 105 -49 22 22 11 30
-20 14 -20 -11 -27 -11 -40 0 -26 22 -16 31 30 27 41 -3 45 -2 45 18 0 49 -64
71 -100 35z m68 -17 c2 -9 -7 -13 -28 -13 -28 0 -31 2 -20 15 15 18 41 16 48
-2z"/>
<path d="M929 790 c-23 -19 -23 -19 -3 -20 11 0 25 5 31 11 13 13 43 5 43 -10
0 -5 -18 -12 -40 -16 -27 -4 -41 -13 -45 -26 -11 -33 11 -48 69 -46 l53 1 -5
51 c-2 27 -9 56 -14 63 -15 18 -63 15 -89 -8z m71 -64 c0 -18 -39 -31 -52 -18
-15 15 0 32 28 32 14 0 24 -6 24 -14z"/>
<path d="M1180 788 c-25 -28 -26 -62 0 -88 24 -24 63 -26 84 -4 25 24 9 35
-24 16 -27 -15 -32 -15 -40 -2 -13 21 -12 31 3 29 6 -1 29 -1 49 0 31 1 36 4
31 19 -19 53 -68 68 -103 30z m70 -13 c11 -13 7 -15 -23 -15 -28 0 -35 3 -31
15 4 8 14 15 24 15 10 0 23 -7 30 -15z"/>
<path d="M1675 793 c4 -10 16 -40 26 -68 18 -49 18 -50 -1 -64 -25 -17 -26
-31 -1 -31 25 0 35 14 65 94 30 79 31 86 12 86 -7 0 -19 -20 -27 -47 l-13 -47
-19 47 c-11 26 -26 47 -34 47 -11 0 -13 -5 -8 -17z"/>
<path d="M2155 790 c-18 -19 -17 -20 3 -20 12 0 22 5 22 11 0 14 42 7 47 -7 2
-7 -12 -15 -31 -18 -43 -8 -64 -31 -49 -54 7 -12 25 -17 65 -18 l55 -1 -5 51
c-2 30 -11 56 -20 64 -24 18 -67 15 -87 -8z m63 -81 c-19 -13 -43 -6 -43 11 0
20 49 31 53 12 2 -8 -2 -19 -10 -23z"/>
<path d="M2290 744 c0 -51 3 -64 15 -64 12 0 15 10 14 45 -3 50 9 69 34 59 13
-5 17 -19 17 -55 0 -37 4 -49 15 -49 11 0 15 13 15 54 0 63 -10 74 -67 73
l-43 0 0 -63z"/>
<path d="M2440 745 c0 -51 3 -65 15 -65 12 0 15 14 15 65 0 51 -3 65 -15 65
-12 0 -15 -14 -15 -65z"/>
<path d="M2499 794 c-18 -22 -1 -46 40 -57 18 -4 31 -13 28 -20 -5 -16 -27
-16 -54 1 -21 13 -23 13 -23 -6 0 -16 8 -23 34 -27 76 -15 108 52 33 70 -15 4
-30 12 -33 17 -11 17 6 22 31 8 29 -16 43 -7 25 15 -16 20 -64 19 -81 -1z"/>
<path d="M2695 790 c-16 -18 -17 -20 -1 -20 9 0 25 6 36 12 15 10 22 10 32 0
15 -15 8 -22 -28 -28 -41 -7 -62 -30 -48 -52 8 -12 26 -17 66 -18 l55 -1 -5
46 c-2 25 -9 54 -14 64 -12 24 -70 23 -93 -3z m75 -59 c0 -21 -22 -33 -45 -24
-22 8 -13 26 16 34 13 4 25 7 27 8 1 1 2 -8 2 -18z"/>
<path d="M2844 748 c32 -84 51 -84 83 0 21 56 21 63 6 60 -10 -2 -21 -18 -26
-38 -14 -56 -25 -58 -39 -7 -8 33 -17 47 -30 47 -16 0 -15 -5 6 -62z"/>
<path d="M3200 790 c-11 -11 -20 -33 -20 -49 0 -51 69 -81 104 -45 23 23 8 39
-16 18 -14 -14 -23 -16 -35 -8 -22 13 -29 36 -12 33 8 -1 31 -1 51 0 31 1 36
4 31 19 -19 52 -67 68 -103 32z m68 -17 c2 -9 -7 -13 -27 -13 -31 0 -42 14
-18 23 19 8 40 3 45 -10z"/>
<path d="M3335 748 c30 -84 49 -84 81 0 20 55 21 63 7 60 -9 -2 -23 -23 -33
-52 l-16 -48 -14 51 c-9 36 -19 51 -31 51 -15 0 -14 -6 6 -62z"/>
<path d="M3460 745 c0 -51 3 -65 15 -65 12 0 15 14 15 65 0 51 -3 65 -15 65
-12 0 -15 -14 -15 -65z"/>
<path d="M3510 745 c0 -51 3 -65 15 -65 11 0 15 12 15 44 0 44 19 74 40 61 5
-3 10 -28 10 -56 0 -38 4 -49 15 -49 13 0 15 11 13 56 -3 66 -23 88 -58 66
-12 -7 -20 -8 -20 -2 0 5 -7 10 -15 10 -12 0 -15 -14 -15 -65z"/>
<path d="M533 573 c-4 -10 -11 -22 -17 -26 -8 -6 -7 -10 2 -14 7 -3 12 -25 12
-59 0 -41 4 -54 15 -54 11 0 15 13 15 54 0 34 5 56 13 59 9 4 8 8 -3 16 -12 9
-12 11 3 17 9 3 14 10 11 15 -9 16 -44 10 -51 -8z"/>
<path d="M1120 505 c0 -69 3 -85 15 -85 12 0 15 14 15 62 l0 61 40 -61 c56
-88 70 -83 70 23 0 69 -3 85 -15 85 -12 0 -15 -14 -15 -62 l0 -61 -40 61 c-56
88 -70 83 -70 -23z"/>
<path d="M1800 505 c0 -69 3 -85 15 -85 10 0 15 11 15 35 0 35 0 35 45 35 50
0 72 23 59 63 -10 31 -22 37 -81 37 l-53 0 0 -85z m98 56 c8 -5 12 -17 10 -27
-2 -14 -13 -20 -41 -22 -35 -3 -37 -2 -37 27 0 27 3 31 28 31 15 0 33 -4 40
-9z"/>
<path d="M2200 580 c0 -5 7 -10 15 -10 8 0 15 5 15 10 0 6 -7 10 -15 10 -8 0
-15 -4 -15 -10z"/>
<path d="M2563 583 c-7 -3 -13 -11 -13 -18 0 -7 -6 -16 -12 -18 -10 -4 -10 -7
-1 -14 6 -5 13 -31 15 -58 3 -46 5 -50 31 -53 29 -4 37 12 12 22 -10 3 -15 19
-15 46 0 29 4 40 15 40 8 0 15 5 15 10 0 6 -6 10 -14 10 -8 0 -16 8 -18 18 -2
11 -9 17 -15 15z"/>
<path d="M600 484 c0 -49 3 -64 14 -64 11 0 16 14 18 47 2 38 8 50 26 59 28
14 19 21 -25 22 l-33 1 0 -65z"/>
<path d="M700 530 c-11 -11 -20 -31 -20 -45 0 -14 9 -34 20 -45 11 -11 31 -20
45 -20 14 0 34 9 45 20 11 11 20 31 20 45 0 14 -9 34 -20 45 -11 11 -31 20
-45 20 -14 0 -34 -9 -45 -20z m70 -14 c28 -34 -11 -94 -44 -67 -21 18 -20 57
2 70 23 14 28 13 42 -3z"/>
<path d="M830 485 c0 -51 3 -65 15 -65 11 0 15 12 15 49 0 35 4 51 16 55 26
10 34 -3 34 -55 0 -37 4 -49 15 -49 11 0 15 12 15 49 0 35 4 51 16 55 26 10
34 -3 34 -55 0 -37 4 -49 15 -49 19 0 21 100 3 118 -14 14 -54 16 -63 2 -4 -6
-13 -5 -25 3 -16 9 -24 9 -40 -1 -12 -7 -20 -8 -20 -2 0 5 -7 10 -15 10 -12 0
-15 -14 -15 -65z"/>
<path d="M1310 530 c-11 -11 -20 -31 -20 -45 0 -14 9 -34 20 -45 11 -11 31
-20 45 -20 14 0 34 9 45 20 11 11 20 31 20 45 0 14 -9 34 -20 45 -11 11 -31
20 -45 20 -14 0 -34 -9 -45 -20z m68 -12 c30 -30 -2 -93 -36 -71 -21 13 -27
50 -12 69 15 17 32 18 48 2z"/>
<path d="M1440 504 c0 -68 11 -82 65 -82 l45 1 0 64 c0 49 -3 63 -15 63 -10 0
-14 -12 -13 -46 0 -29 -4 -49 -13 -55 -25 -16 -34 -3 -37 49 -2 37 -7 52 -18
52 -10 0 -14 -12 -14 -46z"/>
<path d="M1580 485 c0 -51 3 -65 15 -65 11 0 15 12 15 49 0 35 4 51 16 55 26
10 34 -3 34 -55 0 -38 4 -49 15 -49 13 0 15 11 13 56 -3 66 -23 88 -58 66 -12
-7 -20 -8 -20 -2 0 5 -7 10 -15 10 -12 0 -15 -14 -15 -65z"/>
<path d="M1960 484 c0 -49 3 -64 14 -64 11 0 16 14 18 47 2 39 7 50 28 60 14
7 23 13 20 14 -3 1 -22 3 -42 4 l-38 4 0 -65z"/>
<path d="M2080 543 c-63 -23 -43 -123 25 -123 14 0 34 9 45 20 50 50 -2 127
-70 103z m48 -25 c32 -32 1 -89 -37 -68 -26 13 -28 55 -3 69 22 13 26 13 40
-1z"/>
<path d="M2200 471 c0 -54 -4 -81 -12 -84 -7 -2 -9 -8 -5 -13 4 -4 16 -3 25 2
24 16 31 174 7 174 -12 0 -15 -15 -15 -79z"/>
<path d="M2270 530 c-11 -11 -20 -31 -20 -45 0 -53 69 -85 105 -49 22 22 11
30 -20 14 -20 -11 -27 -11 -40 0 -26 21 -17 30 30 27 40 -2 45 0 45 19 0 48
-64 70 -100 34z m68 -17 c2 -9 -7 -13 -27 -13 -31 0 -42 14 -18 23 19 8 40 3
45 -10z"/>
<path d="M2410 530 c-41 -41 -13 -110 46 -110 19 0 54 28 54 43 0 13 -23 7
-35 -9 -18 -26 -57 -1 -53 33 4 34 35 54 51 33 16 -20 37 -23 37 -5 0 35 -69
46 -100 15z"/>
</g>
</svg>
